<?xml version="1.0" encoding="UTF-8"?>
<svg id="Capa_1" data-name="Capa 1" xmlns="http://www.w3.org/2000/svg" viewBox="0 0 246.74 69.54">
  <defs>
    <style>
      .cls-1 {
        letter-spacing: -.01em;
      }

      .cls-2 {
        letter-spacing: 0em;
      }

      .cls-3 {
        font-family: AGaramondPro-Regular, 'Adobe Garamond Pro';
        font-size: 23.02px;
      }

      .cls-3, .cls-4 {
        fill: #37352f;
      }

      .cls-5 {
        fill: #ededed;
      }

      .cls-6 {
        fill: #fff;
      }

      .cls-7 {
        fill: #fefefe;
      }

      .cls-8 {
        fill: #fbfbfb;
      }

      .cls-9 {
        fill: #fdfdfd;
      }

      .cls-10 {
        fill: #282828;
      }

      .cls-11 {
        letter-spacing: -.01em;
      }

      .cls-12 {
        letter-spacing: 0em;
      }

      .cls-13 {
        fill: none;
        stroke: #37352f;
        stroke-miterlimit: 10;
      }
    </style>
  </defs>
  <text class="cls-3" transform="translate(61.8 44.06)"><tspan class="cls-2" x="0" y="0">C</tspan><tspan class="cls-1" x="15.89" y="0">r</tspan><tspan class="cls-12" x="23.3" y="0">eated </tspan><tspan class="cls-2" x="75.38" y="0">b</tspan><tspan x="86.75" y="0">y </tspan><tspan class="cls-11" x="102.59" y="0">R</tspan><tspan x="117.17" y="0">obin</tspan></text>
  <circle class="cls-6" cx="40.94" cy="36.48" r="13.99"/>
  <g>
    <path class="cls-4" d="M50.9,44.32c-.16-.06-.33-.09-.5-.08-.44,.01-.55-.24-.61-.62-.19-1.24-.49-2.44-1.23-3.49-.06-.09-.15-.23-.12-.31,.21-.56,.02-1.11,0-1.67-.01-.38-.11-.66-.4-.88-1.59-1.15-3.29-2-5.31-1.97-2.51,.04-4.9,.65-7.26,1.45-1.54,.52-2.69,1.49-3.49,2.89-.5,.87-.89,1.78-1.23,2.73-.38,1.06-.33,2.06,.39,2.93,.52,.63,.87,1.27,.87,2.11,.03,.02,.06,.03,.09,.05,.2,.16,.41,.32,.61,.47,.33,.08,.66,.21,.96,.39,.24,.18,.48,.37,.71,.55,.03,.03,.07,.07,.1,.11,.18,.07,.35,.15,.52,.25,.08,.06,.15,.12,.23,.18,.35,.08,.69,.21,1.01,.4,.05,.04,.1,.08,.15,.12,.1,.04,.19,.07,.28,.12,.06,0,.12,0,.18,0,.6,0,1.17,.15,1.69,.43,.38,.01,.74,.08,1.09,.21,.33-.12,.68-.18,1.04-.16,.39,0,.77,.06,1.12,.18,.06-.03,.13-.05,.19-.07,.42-.22,.87-.32,1.36-.3,.3,0,.59,.04,.87,.11,.27-.24,.58-.41,.92-.52,.22-.12,.46-.2,.7-.25,.18-.11,.38-.21,.59-.27,.38-.2,.78-.3,1.21-.31,.08-.11,.18-.21,.28-.3,.13-.14,.28-.27,.43-.38,.11-.15,.23-.3,.38-.43,.32-.34,.7-.59,1.13-.73,.21-.11,.44-.19,.67-.24,.06-.29,.11-.59,.16-.89,.06-.39,.03-.83,.37-1.14,.37-.33,.16-.52-.18-.64Z"/>
    <path class="cls-7" d="M46.01,47.85c-.07-.07-.23-.12-.12-.26,.05-.05,.18-.07,.26-.06,.13,.02,.25,.09,.46,.17-.13-.51-.16-.96-.11-1.41,.02-.21-.06-.33-.25-.37-.6-.15-1.33,.19-1.45,.82-.06,.33-.14,.67-.24,.99-.41,1.22-1.28,1.83-2.51,1.77-1.17-.06-2.17-.88-2.38-2.06-.16-.89-.64-1.47-1.45-1.78-.22-.08-.52-.12-.72-.04-.24,.1-.03,.37-.01,.56,.03,.3,.07,.6-.06,.89-.21,.46-.54,.55-.94,.28-.27-.19-.58-.26-.91-.2-.77,.14-1.26,.8-1.25,1.68,.03,.02,.05,.04,.08,.06,.03,.03,.07,.07,.1,.11,.18,.07,.35,.15,.52,.25,.08,.06,.15,.12,.23,.18,.35,.08,.69,.21,1.01,.4,.05,.04,.1,.08,.15,.12,.1,.04,.19,.07,.28,.12,.06,0,.12,0,.18,0,.6,0,1.17,.15,1.69,.43,.38,.01,.74,.08,1.09,.21,.33-.12,.68-.18,1.04-.16,.39,0,.77,.06,1.12,.18,.06-.03,.13-.05,.19-.07,.42-.22,.87-.32,1.36-.3,.3,0,.59,.04,.87,.11,.27-.24,.58-.41,.92-.52,.23-.12,.46-.2,.7-.25,.04-.03,.09-.06,.14-.08-.39,.04-.83-.14-1.23-.37-.18-.11-.27-.29-.13-.48,.12-.16,.28-.15,.45-.04,.16,.11,.31,.21,.48,.3,.27,.17,.56,.17,.76-.08,.23-.27,.14-.56-.07-.82-.07-.09-.16-.16-.24-.24Z"/>
    <path class="cls-7" d="M46.54,49.34c.35-.17,.72-.25,1.12-.26,.04-.04,.07-.09,.11-.13-.28-.11-.54-.3-.78-.57-.09,.46-.25,.77-.45,.96Z"/>
    <path class="cls-7" d="M32.52,46.51c-.14-1.11,.04-2.23-.03-3.47-.31,.81-.41,1.55-.51,2.29-.64-.44-1.01-1.48-.78-2.31,.4-1.4,.98-2.73,1.87-3.9,.61-.8,1.4-1.36,2.36-1.69,2.27-.78,4.57-1.43,7-1.52,1.35-.05,2.62,.2,3.81,.85,.24,.13,.51,.23,.75,.39-.88-.19-1.76-.26-2.65-.2-2.04,.13-4.01,.46-5.72,1.69-.93,.67-1.42,1.65-1.9,2.63-.54,1.12-.9,2.31-1.14,3.53-.05,.25-.13,.32-.38,.37-.61,.11-1.23,.16-1.81,.42-.32,.15-.59,.34-.7,.69-.06,.07,.02,.25-.17,.22Z"/>
    <path class="cls-7" d="M47.28,44.5c-.41,.23-.86,.37-1.05,.86-.07,.19-1.1,.24-1.22,.05-.4-.64-1.08-.68-1.71-.9,.06-.19,.28-.34,.08-.56-.16-.18-.36-.2-.57-.16-.17,.03-.36,.03-.49,.11-.92,.57-1.99,.48-2.99,.66-.28,.05-.58,.08-.8,.25-.34,.26-.69,.23-1.08,.19,.09-.75,.33-1.38,.98-1.82,.3-.2,.54-.52,.64-.85,.46-1.58,1.64-2.18,3.14-2.31,1.49-.12,2.98-.23,4.47-.28,.7-.02,1.33,.14,1.65,.96,.35,.9,.68,1.8,.87,2.74,.04,.22,.25,.54-.02,.67-.27,.12-.62,.2-.92,.03-.36-.21-.74-.36-1.14-.46-.26-.06-.57-.17-.68,.17-.12,.39,.24,.39,.48,.47,.12,.04,.26,.03,.38,.16Z"/>
    <path class="cls-7" d="M42.4,45.29c.07,0,.22-.01,.37,0,1.39,.11,1.91,.87,1.5,2.17-.37,1.19-1.16,1.77-2.27,1.68-1.02-.08-2.06-1.07-2.2-2.12-.06-.43,.41-1.26,.81-1.43,.54-.23,1.11-.34,1.79-.31Z"/>
    <path class="cls-9" d="M48.12,48.6c.08-.07,.16-.14,.25-.19,.11-.15,.23-.3,.38-.43,.24-.25,.5-.45,.8-.6-.01-.74-.06-1.47-.11-2.2-.01-.21-.09-.33-.31-.3-.56,.07-1.12,.13-1.59,.55,.15,.09,.28,.14,.37,.23,.23,.24,.15,1.02-.14,1.19-.43,.25-.55-.06-.65-.4-.04-.13-.12-.17-.26-.13-.17,.04-.11,.16-.1,.26,.05,.45,.16,.89,.38,1.29,.22,.39,.58,.65,.98,.74Z"/>
    <path class="cls-8" d="M33.67,48.33s.04,.03,.07,.05c.12-.8,.59-1.42,1.37-1.74,.43-.17,.36-.54,.3-.8-.06-.27-.34-.07-.52-.02-.25,.07-.51,.14-.75,.22-.49,.17-1.01,.31-.83,1.03,.02,.1-.04,.19-.14,.22-.12,.04-.22-.02-.28-.13-.17-.27-.2-.56-.18-.87-.06,.07-.11,.15-.17,.22,.05,.52,.19,1.01,.4,1.49,.26,.08,.51,.19,.75,.33Z"/>
    <path class="cls-5" d="M50.21,46.64c-.1-.37-.19-.69-.1-1.09,.28,.37,.07,.72,.1,1.09Z"/>
    <path class="cls-4" d="M35.37,48.15c.88,0,1.43,.47,1.95,1.02,.11,.12,.1,.29,.04,.36-.11,.13-.23,0-.33-.08-.5-.41-1.06-.72-1.7-.84-.14-.03-.35-.06-.33-.24,.03-.23,.28-.18,.38-.22Z"/>
    <path class="cls-4" d="M35.01,42.42c.01,.21-.12,.31-.28,.23-.38-.2-.74-.44-1.1-.68-.1-.07-.15-.17,0-.26,.33-.2,1.35,.33,1.37,.71Z"/>
    <path class="cls-4" d="M34.67,40c.5,.07,.97,.25,1.42,.46,.18,.08,.36,.21,.26,.42-.11,.23-.33,.14-.48,.04-.42-.27-.87-.5-1.2-.92Z"/>
    <path class="cls-4" d="M35.8,38.52c.66-.03,1.11,.16,1.53,.41,.1,.06,.23,.18,.13,.32-.07,.1-.2,.1-.3,.04-.41-.23-.82-.47-1.35-.77Z"/>
    <path class="cls-4" d="M37.78,37.35c.06-.05,.09-.1,.11-.09,.35,.09,.75,.07,.97,.44,.03,.04-.03,.2-.05,.2-.44,.01-.72-.28-1.03-.54Z"/>
    <path class="cls-10" d="M39.65,36.65c.09-.02,.11-.03,.13-.03,.27,.06,.56,.09,.71,.37,.01,.02-.09,.15-.13,.15-.31-.04-.56-.17-.71-.49Z"/>
    <path class="cls-4" d="M42.72,45.99c.04,.35-.05,.56-.12,.77-.06,.19-.14,.37-.38,.31-.2-.05-.29-.2-.32-.41-.02-.21,0-.41,.02-.62,.03-.34,.12-.61,.53-.57,.4,.05,.26,.38,.28,.51Z"/>
  </g>
  <g>
    <path class="cls-4" d="M42.4,36.56c.13,.05,.27,.07,.41,.09,.08,.01,.16,.03,.22,.08,.03,.02,.06,.04,.04,.08-.02,.03-.05,0-.07,0-.02,0-.04-.05-.06,0-.02,.12-.11,.09-.18,.07-.31-.12-.63-.22-.94-.35-.19-.08-.38-.13-.6-.09-.21,.04-.43,.04-.64,.05-.07,0-.15,0-.16-.1-.01-.11-.08-.09-.14-.06-.05,.03-.1,.06-.16,.09-.02-.11,.06-.15,.13-.19,.19-.09,.37-.03,.56,.02,.18,.06,.35,0,.51-.05,.04-.01,.08-.04,.07-.09,0-.06-.06-.06-.11-.06-.22,.03-.41-.09-.62-.13-.17-.03-.32-.12-.5-.11-.08,0-.14,0-.2,.06-.04,.04-.1,.05-.15,.06-.13,.03-.26,.06-.39,.11-.09,.04-.16,.05-.24-.04-.08-.09-.1,.02-.14,.06-.02,.02-.03,.07-.07,.05-.03-.02-.01-.06,0-.09,.08-.17,.21-.27,.41-.26,.19,0,.38,0,.56-.09,.11-.06,.15-.12,.13-.26-.1-.51-.22-1.02-.36-1.53,0-.03-.01-.06-.02-.09-.03-.08,.01-.22-.08-.25-.17-.06-.34-.16-.53-.06-.36,.19-.76,.3-1.13,.47-.11,.05-.21,.09-.33,.08-.07,0-.09-.02-.07-.09,.04-.13,.1-.26,.19-.35,.14-.14,.23-.32,.36-.48,.05-.06,.07-.1-.04-.13-.2-.05-.41-.07-.62-.1-.95-.14-1.89,.08-2.83,.13-.31,.02-.63,.08-.95,.02-.33-.06-.45-.29-.33-.6,.04-.1,.09-.19,.14-.29,.04-.07,.03-.14-.01-.21-.02-.03-.05-.07-.07-.11-.1-.19-.04-.3,.17-.33,.42-.05,.85,.02,1.27,.05,.5,.04,1.01,.12,1.51,.14,1.01,.04,1.86-.34,2.53-1.09,.26-.29,.5-.61,.76-.91,.46-.55,.96-1.07,1.53-1.53,.33-.27,.59-.6,.78-.99,.35-.7,.92-1.1,1.71-1.15,.52-.03,.98,.16,1.38,.5,.14,.12,.27,.23,.48,.22,.19-.01,.38,.02,.56,.07,.05,.01,.11,.03,.11,.09,0,.06-.07,.06-.11,.07-.24,.04-.46,.14-.71,.13-.08,0-.14,.03-.21,.08-.32,.21-.53,.49-.53,.89,0,.23,0,.47,.02,.7,.04,.42,.03,.85,.03,1.27,0,.28-.11,.55-.23,.8-.25,.53-.59,.97-1.06,1.33-.53,.41-1.14,.66-1.74,.93-.26,.12-.53,.22-.79,.34-.09,.04-.16,.09-.23,.16-.17,.19-.17,.27-.05,.48,.2,.35,.39,.71,.57,1.07,.07,.14,.14,.24,.31,.21,.04,0,.11,0,.13,.06-.04,.05-.09-.01-.13,0-.01,.1,.05,.12,.13,.1,.1-.02,.2-.05,.3-.06,.15-.03,.28,.04,.34,.17-.04,0-.07-.02-.1-.04-.02,0-.06-.03-.07,.01-.03,.13-.12,.1-.21,.1-.12,0-.24,0-.36,.03,.06,.13,.22,.01,.29,.13-.05,.04-.11,0-.17,.02,.04,.12,.13,.19,.23,.24,.24,.12,.49,.14,.75,.06,.2-.06,.36-.08,.51,.11,.05,.06,.16,.07,.26,.05,.14-.03,.31,.07,.38,.2-.08,.03-.11-.05-.17-.07-.05-.02-.1-.06-.09,.04,0,.06-.03,.07-.08,.07-.05,0-.1,0-.14-.01-.21-.07-.42-.08-.63-.08-.07-.01-.14-.02-.2,0,0,0,0,0,0,.01,0,0,0,0,0,.01Z"/>
    <path class="cls-4" d="M42.4,36.56s-.05,0-.07-.05c.1,0,.18,0,.27,.02-.06,.03-.14-.02-.19,.03Z"/>
    <path class="cls-6" d="M39.8,33.53c.31,0,.23-.04,.33,.22,.03,.09,.08,.17,.14,.24,.27,.39,.48,.81,.7,1.23,.05,.09,.06,.14-.07,.16-.09,0-.17,.05-.25,.07-.25,.07-.38,0-.44-.24-.11-.43-.21-.85-.31-1.28-.03-.14-.07-.27-.1-.4Z"/>
  </g>
  <circle class="cls-13" cx="40.94" cy="36.48" r="13.99"/>
</svg>